<svg id="Layer_1" data-name="Layer 1" xmlns="http://www.w3.org/2000/svg" xmlns:xlink="http://www.w3.org/1999/xlink" viewBox="0 0 524.42 524.2"><defs><style>.cls-1{fill:none;}.cls-1,.cls-2,.cls-3,.cls-4,.cls-5{stroke:#231f20;stroke-miterlimit:10;stroke-width:0.25px;}.cls-2{fill:#fff;}.cls-3{fill:url(#linear-gradient);}.cls-4{fill:url(#linear-gradient-2);}.cls-5{fill:url(#radial-gradient);}</style><linearGradient id="linear-gradient" x1="263.39" y1="274.34" x2="290.46" y2="274.34" gradientUnits="userSpaceOnUse"><stop offset="0" stop-color="#2484c6"/><stop offset="1" stop-color="#2484c6" stop-opacity="0"/></linearGradient><linearGradient id="linear-gradient-2" x1="262.21" y1="524.07" x2="262.21" y2="120.95" gradientUnits="userSpaceOnUse"><stop offset="0" stop-color="#2484c6"/><stop offset="0" stop-color="#2484c6" stop-opacity="0.99"/><stop offset="0.05" stop-color="#2484c6" stop-opacity="0.78"/><stop offset="0.1" stop-color="#2484c6" stop-opacity="0.6"/><stop offset="0.15" stop-color="#2484c6" stop-opacity="0.44"/><stop offset="0.21" stop-color="#2484c6" stop-opacity="0.3"/><stop offset="0.28" stop-color="#2484c6" stop-opacity="0.19"/><stop offset="0.37" stop-color="#2484c6" stop-opacity="0.1"/><stop offset="0.47" stop-color="#2484c6" stop-opacity="0.04"/><stop offset="0.61" stop-color="#2484c6" stop-opacity="0.01"/><stop offset="1" stop-color="#2484c6" stop-opacity="0"/></linearGradient><radialGradient id="radial-gradient" cx="142.04" cy="193.92" r="18.53" gradientUnits="userSpaceOnUse"><stop offset="0" stop-color="#be1e2d" stop-opacity="0"/><stop offset="0.4" stop-color="#be1e2d" stop-opacity="0.01"/><stop offset="0.54" stop-color="#be1e2d" stop-opacity="0.05"/><stop offset="0.64" stop-color="#be1e2d" stop-opacity="0.11"/><stop offset="0.72" stop-color="#be1e2d" stop-opacity="0.2"/><stop offset="0.79" stop-color="#be1e2d" stop-opacity="0.31"/><stop offset="0.85" stop-color="#be1e2d" stop-opacity="0.46"/><stop offset="0.91" stop-color="#be1e2d" stop-opacity="0.63"/><stop offset="0.96" stop-color="#be1e2d" stop-opacity="0.82"/><stop offset="1" stop-color="#be1e2d"/></radialGradient></defs><title>map-4</title><g id="Disk"><ellipse class="cls-1" cx="142.04" cy="73.57" rx="16.55" ry="4.66"/><ellipse class="cls-1" cx="142.04" cy="66.73" rx="16.55" ry="4.66"/><ellipse class="cls-1" cx="142.04" cy="60.03" rx="16.55" ry="4.66"/><ellipse class="cls-1" cx="142.04" cy="53.18" rx="16.55" ry="4.66"/><line class="cls-1" x1="125.49" y1="53.18" x2="125.49" y2="73.57"/><line class="cls-1" x1="158.59" y1="53.18" x2="158.59" y2="73.57"/><ellipse class="cls-1" cx="142.04" cy="53.18" rx="3.85" ry="1.08"/></g><polygon class="cls-2" points="503.81 120.35 476.75 134.94 476.75 107.68 503.81 93.09 503.81 120.35"/><polygon class="cls-2" points="359.54 120.35 386.61 134.94 386.61 107.68 359.54 93.09 359.54 120.35"/><polygon class="cls-1" points="24.7 272.07 51.77 286.66 51.77 259.4 24.7 244.81 24.7 272.07"/><polygon class="cls-3" points="263.38 280.68 290.45 295.27 290.45 268.01 263.38 253.42 263.38 280.68"/><polygon class="cls-2" points="303.99 200.26 276.92 214.85 276.92 187.59 303.99 173 303.99 200.26"/><rect class="cls-1" x="0.13" y="0.13" width="523.95" height="523.95"/><g id="Globe2"><circle class="cls-1" cx="290.46" cy="63.38" r="18.53"/><line class="cls-1" x1="290.46" y1="44.85" x2="290.46" y2="81.91"/><line class="cls-1" x1="271.92" y1="63.38" x2="308.99" y2="63.38"/><path class="cls-1" d="M320.44,218.59c0-10.25,4.14-18.54,9.27-18.54" transform="translate(-39.25 -155.21)"/><path class="cls-1" d="M320.44,218.59c0,10.24,4.14,18.53,9.27,18.53" transform="translate(-39.25 -155.21)"/><path class="cls-1" d="M339,218.59c0-10.25-4.14-18.54-9.26-18.54" transform="translate(-39.25 -155.21)"/><path class="cls-1" d="M339,218.59c0,10.24-4.14,18.53-9.26,18.53" transform="translate(-39.25 -155.21)"/><polyline class="cls-1" points="275.03 73.66 275.03 73.66 305.88 73.66"/><line class="cls-1" x1="306.5" y1="54.11" x2="275.03" y2="54.11"/></g><polygon class="cls-4" points="0.13 295.27 160.57 295.27 127.29 328.56 80.1 375.75 285.55 375.75 361.78 299.52 289.48 299.52 337.09 251.91 262.34 251.91 354.75 159.5 485.74 159.5 524.29 120.95 524.07 524.07 0.13 524.07 0.13 295.27"/><g id="Globe1"><circle class="cls-5" cx="142.04" cy="193.92" r="18.53"/><line class="cls-1" x1="142.04" y1="175.39" x2="142.04" y2="212.45"/><line class="cls-1" x1="123.51" y1="193.92" x2="160.57" y2="193.92"/><path class="cls-1" d="M172,349.13c0-10.24,4.14-18.53,9.26-18.53" transform="translate(-39.25 -155.21)"/><path class="cls-1" d="M172,349.13c0,10.24,4.14,18.53,9.26,18.53" transform="translate(-39.25 -155.21)"/><path class="cls-1" d="M190.56,349.13c0-10.24-4.15-18.53-9.27-18.53" transform="translate(-39.25 -155.21)"/><polyline class="cls-1" points="126.62 204.2 126.62 204.2 157.47 204.2"/><line class="cls-1" x1="158.09" y1="184.65" x2="126.13" y2="184.65"/><path class="cls-1" d="M190.56,349.13c0,10.24-4.15,18.53-9.27,18.53" transform="translate(-39.25 -155.21)"/></g><path class="cls-1" d="M185.93,502.2" transform="translate(-39.25 -155.21)"/><path class="cls-1" d="M347.63,502.2" transform="translate(-39.25 -155.21)"/><polygon class="cls-1" points="128.51 353.33 155.58 367.92 155.58 340.65 128.51 326.06 128.51 353.33"/><polygon class="cls-1" points="303.99 353.33 276.92 367.92 276.92 340.65 303.99 326.06 303.99 353.33"/><path class="cls-1" d="M207.42,433.46" transform="translate(-39.25 -155.21)"/><path class="cls-1" d="M311.61,433.46" transform="translate(-39.25 -155.21)"/><path class="cls-1" d="M251.76,521.74" transform="translate(-39.25 -155.21)"/></svg>